<svg width="219" height="66" viewBox="0 0 219 66" fill="none" xmlns="http://www.w3.org/2000/svg">
<g clip-path="url(#clip0_215_13426)">
<ellipse opacity="0.8" cx="60.4431" cy="26.6666" rx="13.5188" ry="19.377" transform="rotate(5.91321 60.4431 26.6666)" fill="#FDC040"/>
<ellipse cx="41.0546" cy="32.7057" rx="13.5188" ry="19.377" transform="rotate(-18.8509 41.0546 32.7057)" fill="#FDC040"/>
<path d="M27 39H75.0709C75.4546 39.1667 76.3369 39.8 76.7973 41C77.3728 42.5 79 64.5 51.5 60C29.8624 60 24.8134 59.3333 25.0052 59C29 58 29.5 54 30 51C30.5 48 27 39 27 39Z" fill="#81B13D"/>
<path d="M63.1172 18.4323C62.486 18.4323 61.9746 18.9439 61.9746 19.5749V19.7574C61.9746 20.3886 62.486 20.9 63.1172 20.9C63.7484 20.9 64.2598 20.3886 64.2598 19.7574V19.5749C64.2598 18.9437 63.7484 18.4323 63.1172 18.4323Z" fill="black"/>
<path d="M66.0847 23.5298C65.4536 23.5298 64.9421 24.0412 64.9421 24.6723V24.8548C64.9421 25.4859 65.4536 25.9974 66.0847 25.9974C66.7159 25.9974 67.2273 25.486 67.2273 24.8548V24.6723C67.2273 24.0412 66.7159 23.5298 66.0847 23.5298Z" fill="black"/>
<path d="M41.0669 22.4568L40.9823 22.2948C40.6903 21.7353 39.9997 21.5185 39.4408 21.8107C38.8813 22.1027 38.6646 22.7929 38.9566 23.3523L39.0412 23.5142C39.2448 23.9048 39.6429 24.1285 40.0549 24.1285C40.2331 24.1285 40.4138 24.0867 40.5827 23.9984C41.1421 23.7063 41.3589 23.0162 41.0669 22.4568Z" fill="black"/>
<path d="M46.0569 25.6016L45.9723 25.4397C45.6803 24.8801 44.9899 24.6633 44.4308 24.9555C43.8713 25.2476 43.6546 25.9377 43.9466 26.4971L44.0312 26.6591C44.2348 27.0497 44.6328 27.2733 45.0449 27.2733C45.2231 27.2733 45.4038 27.2316 45.5727 27.1432C46.1321 26.8512 46.3489 26.161 46.0569 25.6016Z" fill="black"/>
<path d="M38.9475 48.3339L35.549 44.9352C35.1026 44.489 34.3791 44.4889 33.9332 44.9351C33.4868 45.3813 33.4868 46.1048 33.933 46.5509L37.3315 49.9495C37.5547 50.1727 37.8469 50.2842 38.1394 50.2842C38.4318 50.2842 38.7243 50.1727 38.9473 49.9497C39.3937 49.5034 39.3937 48.78 38.9475 48.3339Z" fill="black"/>
<path d="M49.0452 46.2046C48.6794 45.6906 47.9663 45.5702 47.4519 45.9364L35.5911 54.3806C35.077 54.7465 34.957 55.46 35.3229 55.974C35.5458 56.2872 35.8974 56.454 36.2547 56.454C36.4838 56.454 36.7154 56.3852 36.9163 56.2421L48.7771 47.7979C49.2911 47.432 49.4112 46.7186 49.0452 46.2046Z" fill="black"/>
<path d="M53.2385 47.9281C52.8729 47.414 52.1595 47.2937 51.6451 47.6599L47.0923 50.9012C46.5782 51.2674 46.4583 51.9807 46.8242 52.4947C47.0471 52.808 47.3987 52.9748 47.7559 52.9748C47.9851 52.9748 48.2165 52.9059 48.4176 52.7627L52.9704 49.5214C53.4845 49.1555 53.6044 48.4421 53.2385 47.9281Z" fill="black"/>
<path d="M77.7842 42.7438C77.415 42.2319 76.7011 42.1164 76.189 42.4852L75.8085 42.7596C75.81 42.6617 75.8123 42.5638 75.8123 42.4656C75.8123 41.3756 75.3882 40.35 74.6158 39.5755C73.8435 38.8052 72.8178 38.3811 71.7279 38.3811H71.3897C72.6437 35.9583 73.2803 33.0409 73.2803 29.6731C73.2803 23.0682 70.8044 15.8485 66.9728 11.2805C66.5671 10.7969 65.8465 10.7336 65.3631 11.1394C64.8797 11.545 64.8165 12.2657 65.2221 12.7491C68.7292 16.93 70.9953 23.5732 70.9953 29.6731C70.9953 33.1884 70.2397 36.1143 68.7493 38.3811H66.4871L67.4923 37.6655C68.0065 37.2996 68.1264 36.5861 67.7604 36.0721C67.3946 35.5581 66.6815 35.4378 66.167 35.804L62.5473 38.3811H55.7509C56.4359 34.9117 55.7225 31.0358 53.6525 27.0709C52.1708 24.2336 50.0665 21.4882 47.6459 19.1622C50.1392 12.8559 54.2653 8.82164 58.2857 8.82164C59.4998 8.82164 60.7235 9.17493 61.9223 9.87206C62.4678 10.1889 63.1672 10.0038 63.4844 9.45844C63.8014 8.9129 63.6163 8.21348 63.0708 7.8963C61.5186 6.99397 59.9086 6.53647 58.2857 6.53647C53.4217 6.53647 48.7448 10.7159 45.8367 17.5516C44.8461 16.7366 43.8196 15.9956 42.7739 15.3498C37.8518 12.3099 33.191 11.6539 29.6503 13.5023C26.3845 15.209 24.2927 18.9934 23.7598 24.1583C23.6949 24.786 24.1513 25.3474 24.779 25.412C25.4082 25.4778 25.9682 25.0203 26.0326 24.3928C26.4843 20.0158 28.1449 16.8674 30.7081 15.5277C36.9487 12.2697 47.2551 19.7574 51.6268 28.1286C53.5712 31.8531 54.1695 35.2973 53.4124 38.3812H40.6019C40.5987 38.3812 40.5957 38.3812 40.5925 38.3812H34.7376L32.82 36.4637C32.3737 36.0176 31.6503 36.0176 31.2041 36.4637C30.7579 36.91 30.7579 37.6334 31.2041 38.0796L31.5056 38.3811H28.3688C27.0961 35.4885 26.2595 32.1669 26 28.9447C25.9494 28.3158 25.3992 27.8455 24.7695 27.8975C24.1405 27.9481 23.6717 28.4989 23.7223 29.128C23.933 31.7465 24.4735 34.352 25.3078 36.811C22.0512 34.0361 17.7976 32.5448 13.4182 32.7826C13.0099 32.8048 12.6446 33.0435 12.4604 33.4084C10.7421 36.8107 10.259 40.651 10.9717 44.2878C10.9784 44.3981 11.0002 44.504 11.0358 44.6034C11.2598 45.6411 11.5827 46.6601 12.002 47.6462C7.11142 48.4047 2.76853 51.2873 0.165419 55.5812C-0.0464928 55.9307 -0.0553287 56.3669 0.141958 56.725C1.98304 60.0663 4.88505 62.6334 8.29437 64.0961C8.38532 64.1494 8.48024 64.1898 8.57789 64.2157C10.4607 64.9833 12.491 65.4171 14.5789 65.4602C14.6933 65.4626 14.8065 65.4637 14.9206 65.4637C15.7334 65.4637 16.5385 65.4023 17.3318 65.287C17.4064 65.2825 17.4806 65.273 17.5527 65.2542C20.9109 64.7199 24.0331 63.1778 26.498 60.8607C26.5539 60.8691 26.6106 60.8749 26.6688 60.8749H31.7958C32.427 60.8749 32.9384 60.3635 32.9384 59.7323C32.9384 59.1012 32.427 58.5897 31.7958 58.5897H28.5152C28.815 58.1833 29.0992 57.7627 29.3636 57.3263C29.3717 57.3129 29.3783 57.2989 29.3857 57.2854C29.3926 57.273 29.4008 57.2618 29.4072 57.249C32.0685 51.9766 31.7673 45.6531 28.6403 40.6662H33.7908L36.9015 43.777C37.1247 44 37.4172 44.1115 37.7095 44.1115C38.0019 44.1115 38.2944 44 38.5176 43.777C38.9638 43.3306 38.9638 42.6073 38.5176 42.1611L37.0228 40.6662H40.124L44.3659 44.9081C44.5891 45.1312 44.8816 45.2427 45.174 45.2427C45.4663 45.2427 45.7588 45.1312 45.982 44.9081C46.4282 44.4618 46.4282 43.7384 45.982 43.2922L43.3562 40.6664H54.2708C54.272 40.6664 54.2732 40.6667 54.2746 40.6667C54.2758 40.6667 54.277 40.6664 54.2784 40.6664H59.3379L56.8434 42.4423C56.3292 42.8082 56.2093 43.5216 56.5753 44.0357C56.7982 44.3489 57.1498 44.5157 57.507 44.5157C57.7361 44.5157 57.9676 44.4468 58.1686 44.3036L63.2777 40.6662H69.3447C69.3453 40.6662 69.346 40.6664 69.3466 40.6664C69.3475 40.6664 69.3483 40.6662 69.3492 40.6662H71.7287C72.2093 40.6662 72.662 40.8535 73.0008 41.1912C73.3407 41.532 73.5279 41.9846 73.5279 42.4654C73.5279 43.1533 73.4843 43.8311 73.4004 44.4965L65.0107 50.5458C64.499 50.9149 64.3832 51.629 64.7522 52.141C64.9757 52.4507 65.3253 52.6154 65.68 52.6154C65.9116 52.6154 66.1453 52.5452 66.3474 52.3995L72.5835 47.9031C71.3376 51.3701 68.9361 54.2903 65.8453 56.1973L53.1032 43.4552C52.6568 43.0092 51.9335 43.0092 51.4873 43.4552C51.0411 43.9016 51.0411 44.6249 51.4873 45.0711L63.7173 57.3012C62.0612 58.0087 60.2634 58.4461 58.3795 58.5591L53.3983 53.5781C52.9522 53.132 52.2287 53.1318 51.7825 53.5782C51.3363 54.0244 51.3363 54.7478 51.7827 55.194L55.1783 58.5894H43.9925L42.1594 56.7563C41.713 56.3102 40.9897 56.3102 40.5434 56.7563C40.0972 57.2026 40.0972 57.926 40.5434 58.3722L40.7607 58.5894H36.5561C35.925 58.5894 35.4135 59.1009 35.4135 59.732C35.4135 60.3632 35.925 60.8746 36.5561 60.8746H43.0448L45.6219 63.4517C45.845 63.6747 46.1375 63.7862 46.4299 63.7862C46.7222 63.7862 47.0147 63.6747 47.2379 63.4517C47.6841 63.0053 47.6841 62.282 47.2379 61.8358L46.2768 60.8746H57.4014C60.282 60.8746 63.0097 60.209 65.4401 59.0247L66.3998 59.9845C66.623 60.2075 66.9155 60.319 67.2079 60.319C67.5002 60.319 67.7927 60.2075 68.0159 59.9845C68.4621 59.5381 68.4621 58.8148 68.0159 58.3685L67.4985 57.8512C71.6181 55.1391 74.589 50.8196 75.5105 45.7919L77.5259 44.3388C78.0374 43.9698 78.1532 43.2558 77.7842 42.7438ZM26.5599 41.6512C26.688 41.8472 26.8093 42.0466 26.9272 42.2476L24.0349 47.9866L20.7325 42.9333L23.0438 37.9277C24.4088 38.939 25.6061 40.1917 26.5599 41.6512ZM22.7837 50.249L16.4847 50.5662C16.0601 50.0764 15.6651 49.5563 15.3056 49.006C14.5542 47.8563 13.9809 46.6199 13.5861 45.3374L19.5107 45.2407L22.7837 50.249ZM21.0907 36.706L19.2575 40.6761L15.6141 35.1009C17.5408 35.272 19.4009 35.825 21.0907 36.706ZM13.7005 36.3497L18.033 42.9793L13.0788 43.0602C12.7652 40.8233 12.9691 38.5215 13.7005 36.3497ZM13.1098 49.8075C13.2017 49.9579 13.2957 50.1077 13.3926 50.256C13.9002 51.0328 14.468 51.7582 15.0859 52.4301C15.131 52.4888 15.1817 52.5427 15.237 52.5916C16.2634 53.6786 17.4242 54.6186 18.6844 55.3922L12.6729 55.2686L9.83869 50.5283C10.8882 50.1658 11.9846 49.9219 13.1098 49.8075ZM7.72674 51.4489L9.97717 55.213L3.31545 55.0761C4.54304 53.5767 6.04501 52.348 7.72674 51.4489ZM8.45997 61.6595C6.43608 60.6563 4.65044 59.1895 3.2702 57.3606L11.188 57.5235L8.45997 61.6595ZM16.5787 63.0819C15.9348 63.1564 15.2824 63.1886 14.6254 63.1756C13.2523 63.1471 11.9078 62.9229 10.6265 62.5254L13.8889 57.5789L19.8704 57.7019L16.5787 63.0819ZM19.6943 62.3682L22.516 57.7564L25.9845 57.8277C26.0558 57.8343 26.1274 57.839 26.1988 57.8446C24.4795 59.9319 22.2181 61.491 19.6943 62.3682ZM26.1179 55.545C23.4668 55.2852 20.9464 54.3022 18.8298 52.7362L24.2311 52.4641L26.2462 55.5476L26.1179 55.545ZM28.1656 54.3075L25.4796 50.1974L28.1456 44.9072C29.1775 47.9357 29.1945 51.2504 28.1656 54.3075Z" fill="black"/>
<path d="M66.5713 44.7026C66.202 44.1907 65.4879 44.0752 64.9762 44.4442L60.9499 47.3475C60.4382 47.7164 60.3224 48.4305 60.6915 48.9425C60.9149 49.2522 61.2645 49.4169 61.6191 49.4169C61.8509 49.4169 62.0844 49.3467 62.2866 49.2009L66.3129 46.2977C66.8246 45.9287 66.9404 45.2146 66.5713 44.7026Z" fill="black"/>
</g>
<path d="M88.0051 60V54.05H90.4531C90.9801 54.05 91.4306 54.135 91.8046 54.305C92.1842 54.475 92.4761 54.7187 92.6801 55.036C92.8841 55.3533 92.9861 55.7302 92.9861 56.1665C92.9861 56.6028 92.8841 56.9797 92.6801 57.297C92.4761 57.6143 92.1842 57.858 91.8046 58.028C91.4306 58.198 90.9801 58.283 90.4531 58.283H88.6171L89.1101 57.7645V60H88.0051ZM89.1101 57.8835L88.6171 57.348H90.4021C90.8894 57.348 91.2549 57.246 91.4986 57.042C91.7479 56.8323 91.8726 56.5405 91.8726 56.1665C91.8726 55.7868 91.7479 55.495 91.4986 55.291C91.2549 55.087 90.8894 54.985 90.4021 54.985H88.6171L89.1101 54.441V57.8835ZM94.9395 60V54.05H97.3875C97.9145 54.05 98.365 54.135 98.739 54.305C99.1187 54.475 99.4105 54.7187 99.6145 55.036C99.8185 55.3533 99.9205 55.7302 99.9205 56.1665C99.9205 56.6028 99.8185 56.9797 99.6145 57.297C99.4105 57.6087 99.1187 57.8495 98.739 58.0195C98.365 58.1838 97.9145 58.266 97.3875 58.266H95.5515L96.0445 57.7645V60H94.9395ZM98.8325 60L97.328 57.841H98.5095L100.023 60H98.8325ZM96.0445 57.8835L95.5515 57.3565H97.3365C97.8239 57.3565 98.1894 57.2517 98.433 57.042C98.6824 56.8323 98.807 56.5405 98.807 56.1665C98.807 55.7868 98.6824 55.495 98.433 55.291C98.1894 55.087 97.8239 54.985 97.3365 54.985H95.5515L96.0445 54.441V57.8835ZM104.795 60.085C104.33 60.085 103.902 60.0085 103.511 59.8555C103.12 59.7025 102.78 59.49 102.491 59.218C102.202 58.9403 101.978 58.6173 101.82 58.249C101.661 57.875 101.582 57.467 101.582 57.025C101.582 56.583 101.661 56.1778 101.82 55.8095C101.978 55.4355 102.202 55.1125 102.491 54.8405C102.78 54.5628 103.12 54.3475 103.511 54.1945C103.902 54.0415 104.327 53.965 104.786 53.965C105.251 53.965 105.676 54.0415 106.061 54.1945C106.452 54.3475 106.792 54.5628 107.081 54.8405C107.37 55.1125 107.594 55.4355 107.753 55.8095C107.911 56.1778 107.991 56.583 107.991 57.025C107.991 57.467 107.911 57.875 107.753 58.249C107.594 58.623 107.37 58.946 107.081 59.218C106.792 59.49 106.452 59.7025 106.061 59.8555C105.676 60.0085 105.254 60.085 104.795 60.085ZM104.786 59.116C105.087 59.116 105.364 59.065 105.619 58.963C105.874 58.861 106.095 58.7165 106.282 58.5295C106.469 58.3368 106.614 58.1158 106.716 57.8665C106.823 57.6115 106.877 57.331 106.877 57.025C106.877 56.719 106.823 56.4413 106.716 56.192C106.614 55.937 106.469 55.716 106.282 55.529C106.095 55.3363 105.874 55.189 105.619 55.087C105.364 54.985 105.087 54.934 104.786 54.934C104.486 54.934 104.208 54.985 103.953 55.087C103.704 55.189 103.483 55.3363 103.29 55.529C103.103 55.716 102.956 55.937 102.848 56.192C102.746 56.4413 102.695 56.719 102.695 57.025C102.695 57.3253 102.746 57.603 102.848 57.858C102.956 58.113 103.103 58.3368 103.29 58.5295C103.477 58.7165 103.698 58.861 103.953 58.963C104.208 59.065 104.486 59.116 104.786 59.116ZM111.024 56.787H113.99V57.722H111.024V56.787ZM111.117 60H110.012V54.05H114.356V54.9765H111.117V60ZM117.294 56.5235H120.252V57.433H117.294V56.5235ZM117.379 59.0735H120.737V60H116.274V54.05H120.618V54.9765H117.379V59.0735ZM124.663 60.085C124.198 60.085 123.754 60.0198 123.329 59.8895C122.904 59.7535 122.566 59.5807 122.317 59.371L122.7 58.5125C122.938 58.6995 123.232 58.8553 123.584 58.98C123.935 59.1047 124.295 59.167 124.663 59.167C124.975 59.167 125.227 59.133 125.42 59.065C125.612 58.997 125.754 58.9063 125.845 58.793C125.935 58.674 125.981 58.5408 125.981 58.3935C125.981 58.2122 125.915 58.0677 125.785 57.96C125.655 57.8467 125.485 57.7588 125.275 57.6965C125.071 57.6285 124.842 57.5662 124.587 57.5095C124.337 57.4528 124.085 57.3877 123.83 57.314C123.581 57.2347 123.351 57.1355 123.142 57.0165C122.938 56.8918 122.77 56.7275 122.64 56.5235C122.51 56.3195 122.445 56.0588 122.445 55.7415C122.445 55.4185 122.53 55.1238 122.7 54.8575C122.875 54.5855 123.139 54.3702 123.49 54.2115C123.847 54.0472 124.298 53.965 124.842 53.965C125.199 53.965 125.553 54.0103 125.904 54.101C126.255 54.1917 126.561 54.322 126.822 54.492L126.474 55.3505C126.207 55.1918 125.932 55.0757 125.649 55.002C125.366 54.9227 125.094 54.883 124.833 54.883C124.527 54.883 124.278 54.9198 124.085 54.9935C123.898 55.0672 123.759 55.1635 123.669 55.2825C123.584 55.4015 123.541 55.5375 123.541 55.6905C123.541 55.8718 123.603 56.0192 123.728 56.1325C123.858 56.2402 124.026 56.3252 124.23 56.3875C124.439 56.4498 124.672 56.5122 124.927 56.5745C125.182 56.6312 125.434 56.6963 125.683 56.77C125.938 56.8437 126.168 56.94 126.372 57.059C126.581 57.178 126.748 57.3395 126.873 57.5435C127.003 57.7475 127.069 58.0053 127.069 58.317C127.069 58.6343 126.981 58.929 126.805 59.201C126.635 59.4673 126.372 59.6827 126.015 59.847C125.658 60.0057 125.207 60.085 124.663 60.085ZM130.859 60.085C130.394 60.085 129.949 60.0198 129.524 59.8895C129.099 59.7535 128.762 59.5807 128.513 59.371L128.895 58.5125C129.133 58.6995 129.428 58.8553 129.779 58.98C130.131 59.1047 130.49 59.167 130.859 59.167C131.17 59.167 131.423 59.133 131.615 59.065C131.808 58.997 131.95 58.9063 132.04 58.793C132.131 58.674 132.176 58.5408 132.176 58.3935C132.176 58.2122 132.111 58.0677 131.981 57.96C131.85 57.8467 131.68 57.7588 131.471 57.6965C131.267 57.6285 131.037 57.5662 130.782 57.5095C130.533 57.4528 130.281 57.3877 130.026 57.314C129.776 57.2347 129.547 57.1355 129.337 57.0165C129.133 56.8918 128.966 56.7275 128.836 56.5235C128.705 56.3195 128.64 56.0588 128.64 55.7415C128.64 55.4185 128.725 55.1238 128.895 54.8575C129.071 54.5855 129.334 54.3702 129.686 54.2115C130.043 54.0472 130.493 53.965 131.037 53.965C131.394 53.965 131.748 54.0103 132.1 54.101C132.451 54.1917 132.757 54.322 133.018 54.492L132.669 55.3505C132.403 55.1918 132.128 55.0757 131.845 55.002C131.561 54.9227 131.289 54.883 131.029 54.883C130.723 54.883 130.473 54.9198 130.281 54.9935C130.094 55.0672 129.955 55.1635 129.864 55.2825C129.779 55.4015 129.737 55.5375 129.737 55.6905C129.737 55.8718 129.799 56.0192 129.924 56.1325C130.054 56.2402 130.221 56.3252 130.425 56.3875C130.635 56.4498 130.867 56.5122 131.122 56.5745C131.377 56.6312 131.629 56.6963 131.879 56.77C132.134 56.8437 132.363 56.94 132.567 57.059C132.777 57.178 132.944 57.3395 133.069 57.5435C133.199 57.7475 133.264 58.0053 133.264 58.317C133.264 58.6343 133.176 58.929 133.001 59.201C132.831 59.4673 132.567 59.6827 132.21 59.847C131.853 60.0057 131.403 60.085 130.859 60.085ZM135.21 60V54.05H136.315V60H135.21ZM141.562 60.085C141.098 60.085 140.67 60.0085 140.279 59.8555C139.888 59.7025 139.548 59.49 139.259 59.218C138.97 58.9403 138.746 58.6173 138.587 58.249C138.429 57.875 138.349 57.467 138.349 57.025C138.349 56.583 138.429 56.1778 138.587 55.8095C138.746 55.4355 138.97 55.1125 139.259 54.8405C139.548 54.5628 139.888 54.3475 140.279 54.1945C140.67 54.0415 141.095 53.965 141.554 53.965C142.018 53.965 142.443 54.0415 142.829 54.1945C143.22 54.3475 143.56 54.5628 143.849 54.8405C144.138 55.1125 144.362 55.4355 144.52 55.8095C144.679 56.1778 144.758 56.583 144.758 57.025C144.758 57.467 144.679 57.875 144.52 58.249C144.362 58.623 144.138 58.946 143.849 59.218C143.56 59.49 143.22 59.7025 142.829 59.8555C142.443 60.0085 142.021 60.085 141.562 60.085ZM141.554 59.116C141.854 59.116 142.132 59.065 142.387 58.963C142.642 58.861 142.863 58.7165 143.05 58.5295C143.237 58.3368 143.381 58.1158 143.483 57.8665C143.591 57.6115 143.645 57.331 143.645 57.025C143.645 56.719 143.591 56.4413 143.483 56.192C143.381 55.937 143.237 55.716 143.05 55.529C142.863 55.3363 142.642 55.189 142.387 55.087C142.132 54.985 141.854 54.934 141.554 54.934C141.253 54.934 140.976 54.985 140.721 55.087C140.471 55.189 140.25 55.3363 140.058 55.529C139.871 55.716 139.723 55.937 139.616 56.192C139.514 56.4413 139.463 56.719 139.463 57.025C139.463 57.3253 139.514 57.603 139.616 57.858C139.723 58.113 139.871 58.3368 140.058 58.5295C140.245 58.7165 140.466 58.861 140.721 58.963C140.976 59.065 141.253 59.116 141.554 59.116ZM146.78 60V54.05H147.689L151.421 58.6315H150.97V54.05H152.067V60H151.157L147.426 55.4185H147.876V60H146.78ZM153.669 60L156.347 54.05H157.435L160.121 60H158.965L156.661 54.6365H157.103L154.808 60H153.669ZM154.902 58.623L155.199 57.756H158.412L158.71 58.623H154.902ZM161.728 60V54.05H162.833V59.065H165.944V60H161.728ZM170.865 60V54.05H173.313C173.84 54.05 174.291 54.135 174.665 54.305C175.044 54.475 175.336 54.7187 175.54 55.036C175.744 55.3533 175.846 55.7302 175.846 56.1665C175.846 56.6028 175.744 56.9797 175.54 57.297C175.336 57.6143 175.044 57.858 174.665 58.028C174.291 58.198 173.84 58.283 173.313 58.283H171.477L171.97 57.7645V60H170.865ZM171.97 57.8835L171.477 57.348H173.262C173.749 57.348 174.115 57.246 174.359 57.042C174.608 56.8323 174.733 56.5405 174.733 56.1665C174.733 55.7868 174.608 55.495 174.359 55.291C174.115 55.087 173.749 54.985 173.262 54.985H171.477L171.97 54.441V57.8835ZM177.8 60V54.05H180.248C180.775 54.05 181.225 54.135 181.599 54.305C181.979 54.475 182.271 54.7187 182.475 55.036C182.679 55.3533 182.781 55.7302 182.781 56.1665C182.781 56.6028 182.679 56.9797 182.475 57.297C182.271 57.6087 181.979 57.8495 181.599 58.0195C181.225 58.1838 180.775 58.266 180.248 58.266H178.412L178.905 57.7645V60H177.8ZM181.693 60L180.188 57.841H181.37L182.883 60H181.693ZM178.905 57.8835L178.412 57.3565H180.197C180.684 57.3565 181.049 57.2517 181.293 57.042C181.542 56.8323 181.667 56.5405 181.667 56.1665C181.667 55.7868 181.542 55.495 181.293 55.291C181.049 55.087 180.684 54.985 180.197 54.985H178.412L178.905 54.441V57.8835ZM184.867 60V54.05H185.972V60H184.867ZM188.431 60V54.05H189.341L193.072 58.6315H192.622V54.05H193.718V60H192.809L189.077 55.4185H189.528V60H188.431ZM197.37 60V54.985H195.398V54.05H200.447V54.985H198.475V60H197.37ZM202.126 60V54.05H203.231V60H202.126ZM205.69 60V54.05H206.6L210.331 58.6315H209.881V54.05H210.977V60H210.068L206.336 55.4185H206.787V60H205.69ZM216.201 60.085C215.736 60.085 215.309 60.0113 214.918 59.864C214.532 59.711 214.195 59.4985 213.906 59.2265C213.617 58.9488 213.393 58.623 213.235 58.249C213.076 57.875 212.997 57.467 212.997 57.025C212.997 56.583 213.076 56.175 213.235 55.801C213.393 55.427 213.617 55.104 213.906 54.832C214.201 54.5543 214.544 54.3418 214.935 54.1945C215.326 54.0415 215.753 53.965 216.218 53.965C216.722 53.965 217.176 54.0472 217.578 54.2115C217.986 54.3758 218.329 54.6167 218.607 54.934L217.91 55.614C217.677 55.3817 217.425 55.2117 217.153 55.104C216.887 54.9907 216.592 54.934 216.269 54.934C215.957 54.934 215.668 54.985 215.402 55.087C215.136 55.189 214.906 55.3335 214.714 55.5205C214.521 55.7075 214.371 55.9285 214.263 56.1835C214.161 56.4385 214.11 56.719 214.11 57.025C214.11 57.3253 214.161 57.603 214.263 57.858C214.371 58.113 214.521 58.3368 214.714 58.5295C214.906 58.7165 215.133 58.861 215.394 58.963C215.654 59.065 215.943 59.116 216.261 59.116C216.555 59.116 216.839 59.0707 217.111 58.98C217.388 58.8837 217.652 58.725 217.901 58.504L218.53 59.3285C218.218 59.5778 217.856 59.7677 217.442 59.898C217.034 60.0227 216.62 60.085 216.201 60.085ZM217.485 59.184V56.957H218.53V59.3285L217.485 59.184Z" fill="#253D4E"/>
<path d="M100.95 16.02C101.47 16.28 101.77 16.69 101.85 17.25C101.95 17.81 101.81 18.32 101.43 18.78C101.17 19.14 100.83 19.34 100.41 19.38C100.01 19.42 99.6 19.34 99.18 19.14C98.7 18.92 98.19 18.75 97.65 18.63C97.13 18.51 96.58 18.45 96 18.45C94.92 18.45 93.95 18.62 93.09 18.96C92.25 19.3 91.53 19.79 90.93 20.43C90.33 21.05 89.87 21.79 89.55 22.65C89.25 23.51 89.1 24.46 89.1 25.5C89.1 26.72 89.27 27.78 89.61 28.68C89.97 29.58 90.46 30.33 91.08 30.93C91.7 31.53 92.43 31.98 93.27 32.28C94.11 32.56 95.02 32.7 96 32.7C96.54 32.7 97.08 32.65 97.62 32.55C98.16 32.45 98.68 32.27 99.18 32.01C99.6 31.81 100.01 31.74 100.41 31.8C100.83 31.86 101.18 32.07 101.46 32.43C101.86 32.93 102 33.45 101.88 33.99C101.78 34.51 101.48 34.89 100.98 35.13C100.46 35.39 99.92 35.61 99.36 35.79C98.82 35.95 98.27 36.07 97.71 36.15C97.15 36.25 96.58 36.3 96 36.3C94.56 36.3 93.19 36.07 91.89 35.61C90.61 35.15 89.46 34.47 88.44 33.57C87.44 32.67 86.65 31.55 86.07 30.21C85.49 28.85 85.2 27.28 85.2 25.5C85.2 23.96 85.46 22.54 85.98 21.24C86.52 19.94 87.27 18.82 88.23 17.88C89.21 16.92 90.36 16.18 91.68 15.66C93 15.12 94.44 14.85 96 14.85C96.88 14.85 97.74 14.95 98.58 15.15C99.42 15.35 100.21 15.64 100.95 16.02ZM120.317 27.99C120.317 29.63 119.947 31.08 119.207 32.34C118.487 33.58 117.507 34.55 116.267 35.25C115.047 35.95 113.677 36.3 112.157 36.3C110.637 36.3 109.257 35.95 108.017 35.25C106.797 34.55 105.817 33.58 105.077 32.34C104.357 31.08 103.997 29.63 103.997 27.99C103.997 26.35 104.357 24.91 105.077 23.67C105.817 22.41 106.797 21.43 108.017 20.73C109.257 20.01 110.637 19.65 112.157 19.65C113.677 19.65 115.047 20.01 116.267 20.73C117.507 21.43 118.487 22.41 119.207 23.67C119.947 24.91 120.317 26.35 120.317 27.99ZM116.717 27.99C116.717 26.97 116.507 26.09 116.087 25.35C115.687 24.59 115.137 24 114.437 23.58C113.757 23.16 112.997 22.95 112.157 22.95C111.317 22.95 110.547 23.16 109.847 23.58C109.167 24 108.617 24.59 108.197 25.35C107.797 26.09 107.597 26.97 107.597 27.99C107.597 28.99 107.797 29.87 108.197 30.63C108.617 31.37 109.167 31.95 109.847 32.37C110.547 32.79 111.317 33 112.157 33C112.997 33 113.757 32.79 114.437 32.37C115.137 31.95 115.687 31.37 116.087 30.63C116.507 29.87 116.717 28.99 116.717 27.99ZM131.765 19.65C133.165 19.65 134.415 20.01 135.515 20.73C136.635 21.43 137.515 22.4 138.155 23.64C138.815 24.88 139.145 26.32 139.145 27.96C139.145 29.6 138.815 31.05 138.155 32.31C137.515 33.55 136.645 34.53 135.545 35.25C134.465 35.95 133.245 36.3 131.885 36.3C131.085 36.3 130.335 36.17 129.635 35.91C128.935 35.65 128.315 35.32 127.775 34.92C127.255 34.52 126.845 34.12 126.545 33.72C126.265 33.3 126.125 32.95 126.125 32.67L127.055 32.28V40.17C127.055 40.69 126.885 41.12 126.545 41.46C126.205 41.82 125.775 42 125.255 42C124.735 42 124.305 41.83 123.965 41.49C123.625 41.15 123.455 40.71 123.455 40.17V21.78C123.455 21.26 123.625 20.83 123.965 20.49C124.305 20.13 124.735 19.95 125.255 19.95C125.775 19.95 126.205 20.13 126.545 20.49C126.885 20.83 127.055 21.26 127.055 21.78V23.25L126.545 22.98C126.545 22.72 126.685 22.41 126.965 22.05C127.245 21.67 127.625 21.3 128.105 20.94C128.585 20.56 129.135 20.25 129.755 20.01C130.395 19.77 131.065 19.65 131.765 19.65ZM131.315 22.95C130.435 22.95 129.665 23.17 129.005 23.61C128.345 24.05 127.825 24.65 127.445 25.41C127.085 26.15 126.905 27 126.905 27.96C126.905 28.9 127.085 29.76 127.445 30.54C127.825 31.3 128.345 31.9 129.005 32.34C129.665 32.78 130.435 33 131.315 33C132.195 33 132.955 32.78 133.595 32.34C134.255 31.9 134.765 31.3 135.125 30.54C135.505 29.76 135.695 28.9 135.695 27.96C135.695 27 135.505 26.15 135.125 25.41C134.765 24.65 134.255 24.05 133.595 23.61C132.955 23.17 132.195 22.95 131.315 22.95ZM145.671 34.17C145.671 34.69 145.501 35.13 145.161 35.49C144.821 35.83 144.391 36 143.871 36C143.351 36 142.921 35.83 142.581 35.49C142.241 35.13 142.071 34.69 142.071 34.17V21.78C142.071 21.26 142.241 20.83 142.581 20.49C142.921 20.13 143.351 19.95 143.871 19.95C144.391 19.95 144.821 20.13 145.161 20.49C145.501 20.83 145.671 21.26 145.671 21.78V34.17ZM143.841 18C143.161 18 142.681 17.89 142.401 17.67C142.121 17.45 141.981 17.06 141.981 16.5V15.93C141.981 15.35 142.131 14.96 142.431 14.76C142.751 14.54 143.231 14.43 143.871 14.43C144.571 14.43 145.061 14.54 145.341 14.76C145.621 14.98 145.761 15.37 145.761 15.93V16.5C145.761 17.08 145.611 17.48 145.311 17.7C145.011 17.9 144.521 18 143.841 18ZM153.259 34.17C153.259 34.69 153.079 35.13 152.719 35.49C152.379 35.83 151.949 36 151.429 36C150.929 36 150.509 35.83 150.169 35.49C149.829 35.13 149.659 34.69 149.659 34.17V15.63C149.659 15.11 149.829 14.68 150.169 14.34C150.529 13.98 150.969 13.8 151.489 13.8C152.009 13.8 152.429 13.98 152.749 14.34C153.089 14.68 153.259 15.11 153.259 15.63V34.17ZM172.71 27.99C172.71 29.63 172.34 31.08 171.6 32.34C170.88 33.58 169.9 34.55 168.66 35.25C167.44 35.95 166.07 36.3 164.55 36.3C163.03 36.3 161.65 35.95 160.41 35.25C159.19 34.55 158.21 33.58 157.47 32.34C156.75 31.08 156.39 29.63 156.39 27.99C156.39 26.35 156.75 24.91 157.47 23.67C158.21 22.41 159.19 21.43 160.41 20.73C161.65 20.01 163.03 19.65 164.55 19.65C166.07 19.65 167.44 20.01 168.66 20.73C169.9 21.43 170.88 22.41 171.6 23.67C172.34 24.91 172.71 26.35 172.71 27.99ZM169.11 27.99C169.11 26.97 168.9 26.09 168.48 25.35C168.08 24.59 167.53 24 166.83 23.58C166.15 23.16 165.39 22.95 164.55 22.95C163.71 22.95 162.94 23.16 162.24 23.58C161.56 24 161.01 24.59 160.59 25.35C160.19 26.09 159.99 26.97 159.99 27.99C159.99 28.99 160.19 29.87 160.59 30.63C161.01 31.37 161.56 31.95 162.24 32.37C162.94 32.79 163.71 33 164.55 33C165.39 33 166.15 32.79 166.83 32.37C167.53 31.95 168.08 31.37 168.48 30.63C168.9 29.87 169.11 28.99 169.11 27.99ZM184.099 13.8C184.539 13.8 184.969 13.86 185.389 13.98C185.809 14.1 186.159 14.3 186.439 14.58C186.719 14.84 186.859 15.19 186.859 15.63C186.859 16.13 186.709 16.53 186.409 16.83C186.129 17.11 185.799 17.25 185.419 17.25C185.239 17.25 184.969 17.21 184.609 17.13C184.249 17.03 183.899 16.98 183.559 16.98C183.059 16.98 182.669 17.09 182.389 17.31C182.129 17.53 181.949 17.79 181.849 18.09C181.749 18.37 181.699 18.62 181.699 18.84V34.17C181.699 34.69 181.529 35.13 181.189 35.49C180.849 35.83 180.419 36 179.899 36C179.379 36 178.949 35.83 178.609 35.49C178.269 35.13 178.099 34.69 178.099 34.17V18.87C178.099 17.45 178.599 16.25 179.599 15.27C180.599 14.29 182.099 13.8 184.099 13.8ZM184.429 20.25C184.909 20.25 185.309 20.41 185.629 20.73C185.949 21.03 186.109 21.42 186.109 21.9C186.109 22.38 185.949 22.78 185.629 23.1C185.309 23.4 184.909 23.55 184.429 23.55H176.479C175.999 23.55 175.599 23.4 175.279 23.1C174.959 22.78 174.799 22.38 174.799 21.9C174.799 21.42 174.959 21.03 175.279 20.73C175.599 20.41 175.999 20.25 176.479 20.25H184.429ZM200.842 19.95C201.362 19.95 201.792 20.13 202.132 20.49C202.472 20.83 202.642 21.26 202.642 21.78V34.53C202.642 36.37 202.292 37.83 201.592 38.91C200.912 40.01 199.992 40.8 198.832 41.28C197.672 41.76 196.372 42 194.932 42C194.292 42 193.612 41.95 192.892 41.85C192.172 41.75 191.582 41.6 191.122 41.4C190.522 41.14 190.102 40.81 189.862 40.41C189.642 40.03 189.602 39.62 189.742 39.18C189.922 38.6 190.212 38.2 190.612 37.98C191.012 37.78 191.432 37.76 191.872 37.92C192.192 38.02 192.612 38.17 193.132 38.37C193.652 38.59 194.252 38.7 194.932 38.7C195.852 38.7 196.612 38.57 197.212 38.31C197.832 38.07 198.292 37.65 198.592 37.05C198.912 36.47 199.072 35.67 199.072 34.65V32.64L199.702 33.36C199.362 34.02 198.932 34.57 198.412 35.01C197.912 35.43 197.312 35.75 196.612 35.97C195.912 36.19 195.112 36.3 194.212 36.3C193.152 36.3 192.222 36.06 191.422 35.58C190.642 35.08 190.032 34.4 189.592 33.54C189.152 32.66 188.932 31.66 188.932 30.54V21.78C188.932 21.26 189.102 20.83 189.442 20.49C189.782 20.13 190.212 19.95 190.732 19.95C191.252 19.95 191.682 20.13 192.022 20.49C192.362 20.83 192.532 21.26 192.532 21.78V29.46C192.532 30.76 192.812 31.68 193.372 32.22C193.952 32.74 194.752 33 195.772 33C196.472 33 197.062 32.87 197.542 32.61C198.022 32.33 198.392 31.93 198.652 31.41C198.912 30.87 199.042 30.22 199.042 29.46V21.78C199.042 21.26 199.212 20.83 199.552 20.49C199.892 20.13 200.322 19.95 200.842 19.95Z" fill="#3BB77E"/>
<defs>
<clipPath id="clip0_215_13426">
<rect width="78.0001" height="60" fill="white" transform="translate(0 6)"/>
</clipPath>
</defs>
</svg>
